<svg width="20" height="20" viewBox="0 0 20 20" fill="none" xmlns="http://www.w3.org/2000/svg">
<path d="M18.9324 11.4097C19.008 10.9435 19.0456 10.472 19.0449 9.99969C19.0449 7.6008 18.0919 5.30017 16.3957 3.60391C14.6994 1.90764 12.3988 0.954687 9.99989 0.954687C9.52762 0.953953 9.05607 0.991577 8.58989 1.06719C7.54445 0.44094 6.31975 0.181918 5.11027 0.331252C3.90079 0.480587 2.77587 1.02972 1.91415 1.89144C1.05242 2.75317 0.503292 3.87808 0.353957 5.08756C0.204623 6.29704 0.463645 7.52174 1.08989 8.56719C1.00552 9.04015 0.960364 9.51928 0.954892 9.99969C0.954892 12.3986 1.90784 14.6992 3.60411 16.3955C5.30038 18.0917 7.60101 19.0447 9.99989 19.0447C10.4722 19.0454 10.9437 19.0078 11.4099 18.9322C12.4553 19.5584 13.68 19.8175 14.8895 19.6681C16.099 19.5188 17.2239 18.9697 18.0856 18.1079C18.9474 17.2462 19.4965 16.1213 19.6458 14.9118C19.7952 13.7023 19.5361 12.4776 18.9099 11.4322L18.9324 11.4097ZM14.2974 14.1097C13.874 14.695 13.2907 15.1455 12.6174 15.4072C11.7867 15.7332 10.8996 15.8912 10.0074 15.8722C8.96891 15.9157 7.93579 15.7018 6.99989 15.2497C6.45426 14.9564 5.98634 14.5373 5.63489 14.0272C5.31296 13.5914 5.12998 13.0686 5.10989 12.5272C5.1091 12.3867 5.13734 12.2476 5.19283 12.1185C5.24833 11.9895 5.32988 11.8733 5.43239 11.7772C5.65955 11.5839 5.95198 11.4846 6.24989 11.4997C6.49885 11.495 6.74117 11.5802 6.93239 11.7397C7.14171 11.9355 7.30335 12.1767 7.40489 12.4447C7.53501 12.7579 7.70113 13.0549 7.89989 13.3297C8.09799 13.5834 8.3556 13.7843 8.64989 13.9147C9.04963 14.0862 9.48281 14.1656 9.91739 14.1472C10.5364 14.1772 11.1495 14.0147 11.6724 13.6822C11.8731 13.5646 12.04 13.3972 12.1569 13.1962C12.2739 12.9951 12.3369 12.7673 12.3399 12.5347C12.3464 12.3718 12.3183 12.2094 12.2576 12.0582C12.1968 11.907 12.1047 11.7703 11.9874 11.6572C11.7203 11.4112 11.3992 11.2313 11.0499 11.1322C10.6599 11.0047 10.1424 10.8772 9.48989 10.7347C8.74051 10.5602 8.00964 10.3141 7.30739 9.99969C6.75481 9.77321 6.26756 9.41229 5.88989 8.94969C5.53169 8.47287 5.34652 7.88828 5.36489 7.29219C5.35883 6.68619 5.55403 6.09532 5.91989 5.61219C6.33778 5.093 6.8943 4.70292 7.52489 4.48719C8.32225 4.22235 9.16013 4.10048 9.99989 4.12719C10.657 4.11557 11.312 4.20408 11.9424 4.38969C12.4371 4.53659 12.9019 4.77022 13.3149 5.07969C13.6399 5.32382 13.9107 5.63285 14.1099 5.98719C14.272 6.27342 14.3597 6.59577 14.3649 6.92469C14.3639 7.0649 14.3349 7.2035 14.2795 7.33231C14.2241 7.46113 14.1435 7.57754 14.0424 7.67469C13.9403 7.78528 13.8161 7.87315 13.6779 7.93259C13.5396 7.99203 13.3904 8.0217 13.2399 8.01969C12.9986 8.03846 12.7594 7.96321 12.5724 7.80969C12.3756 7.62006 12.2109 7.39968 12.0849 7.15719C11.8991 6.77493 11.63 6.4392 11.2974 6.17469C10.8609 5.90255 10.347 5.78134 9.83489 5.82969C9.3092 5.80753 8.78831 5.93775 8.33489 6.20469C8.17019 6.29263 8.0311 6.42178 7.9312 6.57952C7.8313 6.73725 7.774 6.9182 7.76489 7.10469C7.75895 7.30845 7.82538 7.50774 7.95239 7.66719C8.10197 7.84051 8.28583 7.98096 8.49239 8.07969C8.71236 8.19348 8.94361 8.28397 9.18239 8.34969C9.42239 8.41719 9.81239 8.51469 10.3599 8.64219C11.0499 8.79219 11.6649 8.95719 12.2274 9.13719C12.7305 9.29048 13.2101 9.51258 13.6524 9.79719C14.0382 10.0412 14.3557 10.3793 14.5749 10.7797C14.7978 11.2364 14.901 11.7422 14.8749 12.2497C14.8817 12.9148 14.6797 13.5653 14.2974 14.1097Z" fill="white"/>
</svg>
